<svg xmlns="http://www.w3.org/2000/svg" width="44" height="12" viewBox="0 0 44 12" fill="none">
  <path d="M5.99996 0.666664C3.06663 0.666664 0.666626 3.06666 0.666626 6C0.666626 8.93333 3.06663 11.3333 5.99996 11.3333C8.93329 11.3333 11.3333 8.93333 11.3333 6C11.3333 3.06666 8.93329 0.666664 5.99996 0.666664ZM38 0.666664C35.0666 0.666664 32.6666 3.06666 32.6666 6C32.6666 8.93333 35.0666 11.3333 38 11.3333C40.9333 11.3333 43.3333 8.93333 43.3333 6C43.3333 3.06666 40.9333 0.666664 38 0.666664ZM22 0.666664C19.0666 0.666664 16.6666 3.06666 16.6666 6C16.6666 8.93333 19.0666 11.3333 22 11.3333C24.9333 11.3333 27.3333 8.93333 27.3333 6C27.3333 3.06666 24.9333 0.666664 22 0.666664Z" fill="#000000"/>
</svg>