<svg width="56" height="56" viewBox="0 0 56 56" fill="none" xmlns="http://www.w3.org/2000/svg">
<g clip-path="url(#clip0_19_236)">
<path d="M44.6596 30.1933C44.7529 29.4933 44.7996 28.77 44.7996 28C44.7996 27.2533 44.7529 26.5067 44.6363 25.8067L49.3729 22.12C49.7929 21.7933 49.9096 21.1633 49.6529 20.6967L45.1729 12.95C44.8929 12.4367 44.3096 12.2733 43.7963 12.4367L38.2196 14.6767C37.0529 13.79 35.8163 13.0433 34.4396 12.4833L33.5996 6.55667C33.5063 5.99667 33.0396 5.60001 32.4796 5.60001H23.5196C22.9596 5.60001 22.5163 5.99667 22.4229 6.55667L21.5829 12.4833C20.2063 13.0433 18.9463 13.8133 17.8029 14.6767L12.2263 12.4367C11.7129 12.25 11.1296 12.4367 10.8496 12.95L6.39294 20.6967C6.11294 21.1867 6.20627 21.7933 6.67294 22.12L11.4096 25.8067C11.2929 26.5067 11.1996 27.2767 11.1996 28C11.1996 28.7233 11.2463 29.4933 11.3629 30.1933L6.62627 33.88C6.20627 34.2067 6.08961 34.8367 6.34627 35.3033L10.8263 43.05C11.1063 43.5633 11.6896 43.7267 12.2029 43.5633L17.7796 41.3233C18.9463 42.21 20.1829 42.9567 21.5596 43.5167L22.3996 49.4433C22.5163 50.0033 22.9596 50.4 23.5196 50.4H32.4796C33.0396 50.4 33.5063 50.0033 33.5763 49.4433L34.4163 43.5167C35.7929 42.9567 37.0529 42.21 38.1963 41.3233L43.7729 43.5633C44.2863 43.75 44.8696 43.5633 45.1496 43.05L49.6296 35.3033C49.9096 34.79 49.7929 34.2067 49.3496 33.88L44.6596 30.1933ZM27.9996 36.4C23.3796 36.4 19.5996 32.62 19.5996 28C19.5996 23.38 23.3796 19.6 27.9996 19.6C32.6196 19.6 36.3996 23.38 36.3996 28C36.3996 32.62 32.6196 36.4 27.9996 36.4Z" fill="black"/>
</g>
<defs>
<clipPath id="clip0_19_236">
<rect width="56" height="56" fill="white"/>
</clipPath>
</defs>
</svg>
