<svg xmlns="http://www.w3.org/2000/svg" width="32" height="32" viewBox="0 0 32 32" fill="none">
<g clip-path="url(#clip0_297_2)">
<path d="M16 6C9.33331 6 3.63998 10.1467 1.33331 16C3.63998 21.8533 9.33331 26 16 26C22.6666 26 28.36 21.8533 30.6666 16C28.36 10.1467 22.6666 6 16 6ZM16 22.6667C12.32 22.6667 9.33331 19.68 9.33331 16C9.33331 12.32 12.32 9.33333 16 9.33333C19.68 9.33333 22.6666 12.32 22.6666 16C22.6666 19.68 19.68 22.6667 16 22.6667ZM16 12C13.7866 12 12 13.7867 12 16C12 18.2133 13.7866 20 16 20C18.2133 20 20 18.2133 20 16C20 13.7867 18.2133 12 16 12Z" fill="black" fill-opacity="0.4"/>
</g>
<defs>
<clipPath id="clip0_297_2">
<rect width="32" height="32" fill="white"/>
</clipPath>
</defs>
</svg>